<svg width="225" height="32" viewBox="0 0 225 32" fill="none" xmlns="http://www.w3.org/2000/svg">
<path d="M210.767 25V7.54541H217.653C218.972 7.54541 220.097 7.78121 221.028 8.2528C221.966 8.71871 222.679 9.38064 223.168 10.2386C223.662 11.0909 223.909 12.0937 223.909 13.2471C223.909 14.4062 223.659 15.4034 223.159 16.2386C222.659 17.0681 221.935 17.7045 220.986 18.1477C220.043 18.5909 218.901 18.8125 217.56 18.8125H212.949V15.8465H216.963C217.668 15.8465 218.253 15.75 218.719 15.5568C219.185 15.3636 219.531 15.0738 219.759 14.6875C219.992 14.3011 220.108 13.821 220.108 13.2471C220.108 12.6676 219.992 12.1789 219.759 11.7812C219.531 11.3835 219.182 11.0823 218.71 10.8778C218.244 10.6676 217.656 10.5625 216.946 10.5625H214.457V25H210.767ZM220.193 17.0568L224.531 25H220.457L216.213 17.0568H220.193Z" fill="black"/>
<path d="M203.544 7.54541H207.235V18.8806C207.235 20.1534 206.931 21.267 206.323 22.2215C205.721 23.1761 204.877 23.9204 203.792 24.4545C202.706 24.9829 201.442 25.2471 199.999 25.2471C198.55 25.2471 197.283 24.9829 196.198 24.4545C195.113 23.9204 194.269 23.1761 193.667 22.2215C193.064 21.267 192.763 20.1534 192.763 18.8806V7.54541H196.454V18.5653C196.454 19.2301 196.598 19.821 196.888 20.338C197.184 20.8551 197.598 21.2613 198.133 21.5568C198.667 21.8522 199.289 22 199.999 22C200.715 22 201.337 21.8522 201.865 21.5568C202.4 21.2613 202.811 20.8551 203.101 20.338C203.397 19.821 203.544 19.2301 203.544 18.5653V7.54541Z" fill="black"/>
<path d="M189.67 16.2728C189.67 18.1762 189.309 19.7955 188.588 21.1307C187.872 22.466 186.895 23.4859 185.656 24.1904C184.423 24.8893 183.037 25.2387 181.497 25.2387C179.946 25.2387 178.554 24.8864 177.321 24.1819C176.088 23.4773 175.113 22.4575 174.397 21.1222C173.681 19.787 173.323 18.1705 173.323 16.2728C173.323 14.3694 173.681 12.7501 174.397 11.4148C175.113 10.0796 176.088 9.06257 177.321 8.3637C178.554 7.65916 179.946 7.30688 181.497 7.30688C183.037 7.30688 184.423 7.65916 185.656 8.3637C186.895 9.06257 187.872 10.0796 188.588 11.4148C189.309 12.7501 189.67 14.3694 189.67 16.2728ZM185.929 16.2728C185.929 15.0398 185.744 14.0001 185.375 13.1535C185.011 12.3069 184.497 11.6648 183.832 11.2273C183.167 10.7898 182.389 10.5711 181.497 10.5711C180.605 10.5711 179.826 10.7898 179.162 11.2273C178.497 11.6648 177.98 12.3069 177.61 13.1535C177.247 14.0001 177.065 15.0398 177.065 16.2728C177.065 17.5057 177.247 18.5455 177.61 19.3921C177.98 20.2387 178.497 20.8807 179.162 21.3182C179.826 21.7557 180.605 21.9745 181.497 21.9745C182.389 21.9745 183.167 21.7557 183.832 21.3182C184.497 20.8807 185.011 20.2387 185.375 19.3921C185.744 18.5455 185.929 17.5057 185.929 16.2728Z" fill="black"/>
<path d="M158.337 10.588V7.54541H172.672V10.588H167.328V25H163.68V10.588H158.337Z" fill="black"/>
<path d="M150.292 7.54541V25H147.105L139.511 14.0142H139.383V25H135.693V7.54541H138.932L146.466 18.5227H146.619V7.54541H150.292Z" fill="black"/>
<path d="M120.549 25H116.594L122.62 7.54541H127.376L133.393 25H129.438L125.066 11.534H124.93L120.549 25ZM120.302 18.1392H129.643V21.0198H120.302V18.1392Z" fill="black"/>
<path d="M101.583 25V7.54541H108.572C109.856 7.54541 110.927 7.73575 111.785 8.11643C112.643 8.49712 113.288 9.02552 113.72 9.70166C114.152 10.3721 114.368 11.1448 114.368 12.0198C114.368 12.7017 114.231 13.3011 113.958 13.8181C113.686 14.3295 113.311 14.75 112.833 15.0795C112.362 15.4034 111.822 15.6335 111.214 15.7698V15.9403C111.879 15.9687 112.501 16.1562 113.081 16.5028C113.666 16.8494 114.14 17.3352 114.504 17.9602C114.868 18.5795 115.049 19.3181 115.049 20.1761C115.049 21.1022 114.819 21.9289 114.359 22.6562C113.905 23.3778 113.231 23.9488 112.339 24.3693C111.447 24.7897 110.348 25 109.041 25H101.583ZM105.274 21.9829H108.282C109.311 21.9829 110.061 21.7869 110.532 21.3948C111.004 20.9971 111.24 20.4687 111.24 19.8096C111.24 19.3267 111.123 18.9005 110.89 18.5312C110.657 18.1619 110.325 17.8721 109.893 17.6619C109.467 17.4517 108.958 17.3465 108.368 17.3465H105.274V21.9829ZM105.274 14.8494H108.01C108.515 14.8494 108.964 14.7613 109.356 14.5852C109.754 14.4034 110.066 14.1477 110.294 13.8181C110.527 13.4886 110.643 13.0937 110.643 12.6335C110.643 12.0028 110.419 11.4943 109.97 11.1079C109.527 10.7215 108.896 10.5284 108.078 10.5284H105.274V14.8494Z" fill="black"/>
<path d="M85.5835 25V7.54541H92.5721C93.8562 7.54541 94.9272 7.73575 95.7852 8.11643C96.6432 8.49712 97.288 9.02552 97.7199 9.70166C98.1517 10.3721 98.3676 11.1448 98.3676 12.0198C98.3676 12.7017 98.2312 13.3011 97.9585 13.8181C97.6858 14.3295 97.3108 14.75 96.8335 15.0795C96.3619 15.4034 95.8221 15.6335 95.2142 15.7698V15.9403C95.879 15.9687 96.5011 16.1562 97.0807 16.5028C97.6659 16.8494 98.1403 17.3352 98.504 17.9602C98.8676 18.5795 99.0494 19.3181 99.0494 20.1761C99.0494 21.1022 98.8193 21.9289 98.3591 22.6562C97.9045 23.3778 97.2312 23.9488 96.3392 24.3693C95.4471 24.7897 94.3477 25 93.0409 25H85.5835ZM89.2738 21.9829H92.2824C93.3108 21.9829 94.0608 21.7869 94.5324 21.3948C95.004 20.9971 95.2397 20.4687 95.2397 19.8096C95.2397 19.3267 95.1233 18.9005 94.8903 18.5312C94.6574 18.1619 94.325 17.8721 93.8932 17.6619C93.467 17.4517 92.9585 17.3465 92.3676 17.3465H89.2738V21.9829ZM89.2738 14.8494H92.0096C92.5153 14.8494 92.9642 14.7613 93.3562 14.5852C93.754 14.4034 94.0665 14.1477 94.2937 13.8181C94.5267 13.4886 94.6432 13.0937 94.6432 12.6335C94.6432 12.0028 94.4187 11.4943 93.9699 11.1079C93.5267 10.7215 92.896 10.5284 92.0778 10.5284H89.2738V14.8494Z" fill="black"/>
<path d="M79.5444 7.54541H83.2348V18.8806C83.2348 20.1534 82.9308 21.267 82.3228 22.2215C81.7206 23.1761 80.8768 23.9204 79.7916 24.4545C78.7064 24.9829 77.4422 25.2471 75.999 25.2471C74.5501 25.2471 73.2831 24.9829 72.1978 24.4545C71.1126 23.9204 70.2689 23.1761 69.6666 22.2215C69.0643 21.267 68.7632 20.1534 68.7632 18.8806V7.54541H72.4535V18.5653C72.4535 19.2301 72.5984 19.821 72.8882 20.338C73.1836 20.8551 73.5984 21.2613 74.1325 21.5568C74.6666 21.8522 75.2888 22 75.999 22C76.7149 22 77.337 21.8522 77.8655 21.5568C78.3995 21.2613 78.8115 20.8551 79.1013 20.338C79.3967 19.821 79.5444 19.2301 79.5444 18.5653V7.54541Z" fill="black"/>
<path d="M49.7991 7.54541H53.9326L57.9127 15.0625H58.0832L62.0633 7.54541H66.1968L59.8303 18.8295V25H56.1656V18.8295L49.7991 7.54541Z" fill="black"/>
<path d="M45.1226 12.5654C45.0544 11.8779 44.7618 11.3438 44.2447 10.9631C43.7277 10.5825 43.026 10.3921 42.1396 10.3921C41.5373 10.3921 41.0288 10.4773 40.614 10.6478C40.1993 10.8126 39.8811 11.0427 39.6595 11.3381C39.4436 11.6336 39.3356 11.9688 39.3356 12.3438C39.3243 12.6563 39.3896 12.929 39.5316 13.162C39.6794 13.395 39.8811 13.5967 40.1368 13.7671C40.3924 13.9319 40.6879 14.0768 41.0231 14.2018C41.3584 14.3211 41.7163 14.4234 42.097 14.5086L43.6652 14.8836C44.4265 15.054 45.1254 15.2813 45.7618 15.5654C46.3981 15.8495 46.9493 16.1989 47.4152 16.6137C47.8811 17.0285 48.2419 17.5171 48.4976 18.0796C48.7589 18.6421 48.8924 19.287 48.8981 20.0143C48.8924 21.0825 48.6197 22.0086 48.0799 22.7927C47.5459 23.5711 46.7731 24.1762 45.7618 24.608C44.7561 25.0342 43.543 25.2472 42.1226 25.2472C40.7135 25.2472 39.4862 25.0313 38.4407 24.5995C37.401 24.1677 36.5885 23.5285 36.0032 22.6819C35.4237 21.8296 35.1197 20.7756 35.0913 19.52H38.6623C38.7021 20.1052 38.8697 20.5938 39.1652 20.9859C39.4663 21.3722 39.8669 21.6648 40.3669 21.8637C40.8726 22.0569 41.4436 22.1535 42.0799 22.1535C42.7049 22.1535 43.2476 22.0626 43.7078 21.8807C44.1737 21.6989 44.5345 21.4461 44.7902 21.1222C45.0459 20.7984 45.1737 20.4262 45.1737 20.0057C45.1737 19.6137 45.0572 19.2842 44.8243 19.0171C44.597 18.7501 44.2618 18.5228 43.8186 18.3353C43.3811 18.1478 42.8441 17.9773 42.2078 17.8239L40.3072 17.3467C38.8356 16.9887 37.6737 16.429 36.8214 15.6677C35.9691 14.9063 35.5459 13.8807 35.5515 12.591C35.5459 11.5342 35.8271 10.6109 36.3953 9.82109C36.9691 9.03132 37.7561 8.41484 38.7561 7.97166C39.7561 7.52848 40.8924 7.30688 42.1652 7.30688C43.4606 7.30688 44.5913 7.52848 45.5572 7.97166C46.5288 8.41484 47.2845 9.03132 47.8243 9.82109C48.364 10.6109 48.6424 11.5256 48.6595 12.5654H45.1226Z" fill="black"/>
<path d="M29.1226 12.5654C29.0544 11.8779 28.7618 11.3438 28.2447 10.9631C27.7277 10.5825 27.026 10.3921 26.1396 10.3921C25.5373 10.3921 25.0288 10.4773 24.614 10.6478C24.1993 10.8126 23.8811 11.0427 23.6595 11.3381C23.4436 11.6336 23.3356 11.9688 23.3356 12.3438C23.3243 12.6563 23.3896 12.929 23.5316 13.162C23.6794 13.395 23.8811 13.5967 24.1368 13.7671C24.3924 13.9319 24.6879 14.0768 25.0231 14.2018C25.3584 14.3211 25.7163 14.4234 26.097 14.5086L27.6652 14.8836C28.4265 15.054 29.1254 15.2813 29.7618 15.5654C30.3981 15.8495 30.9493 16.1989 31.4152 16.6137C31.8811 17.0285 32.2419 17.5171 32.4976 18.0796C32.7589 18.6421 32.8924 19.287 32.8981 20.0143C32.8924 21.0825 32.6197 22.0086 32.0799 22.7927C31.5459 23.5711 30.7731 24.1762 29.7618 24.608C28.7561 25.0342 27.543 25.2472 26.1226 25.2472C24.7135 25.2472 23.4862 25.0313 22.4407 24.5995C21.401 24.1677 20.5885 23.5285 20.0032 22.6819C19.4237 21.8296 19.1197 20.7756 19.0913 19.52H22.6623C22.7021 20.1052 22.8697 20.5938 23.1652 20.9859C23.4663 21.3722 23.8669 21.6648 24.3669 21.8637C24.8726 22.0569 25.4436 22.1535 26.0799 22.1535C26.7049 22.1535 27.2476 22.0626 27.7078 21.8807C28.1737 21.6989 28.5345 21.4461 28.7902 21.1222C29.0459 20.7984 29.1737 20.4262 29.1737 20.0057C29.1737 19.6137 29.0572 19.2842 28.8243 19.0171C28.597 18.7501 28.2618 18.5228 27.8186 18.3353C27.3811 18.1478 26.8441 17.9773 26.2078 17.8239L24.3072 17.3467C22.8356 16.9887 21.6737 16.429 20.8214 15.6677C19.9691 14.9063 19.5459 13.8807 19.5515 12.591C19.5459 11.5342 19.8271 10.6109 20.3953 9.82109C20.9691 9.03132 21.7561 8.41484 22.7561 7.97166C23.7561 7.52848 24.8924 7.30688 26.1652 7.30688C27.4606 7.30688 28.5913 7.52848 29.5572 7.97166C30.5288 8.41484 31.2845 9.03132 31.8243 9.82109C32.364 10.6109 32.6424 11.5256 32.6595 12.5654H29.1226Z" fill="black"/>
<path d="M4.54903 25H0.594482L6.62005 7.54541H11.3757L17.3928 25H13.4382L9.06607 11.534H8.92971L4.54903 25ZM4.30187 18.1392H13.6428V21.0198H4.30187V18.1392Z" fill="black"/>
</svg>
