<svg width="176" height="32" viewBox="0 0 176 32" fill="none" xmlns="http://www.w3.org/2000/svg">
<path d="M0 8.42105C0 3.77023 3.77023 0 8.42105 0H23.5789C28.2298 0 32 3.77023 32 8.42105V23.5789C32 28.2298 28.2298 32 23.5789 32H8.42105C3.77023 32 0 28.2298 0 23.5789V8.42105Z" fill="#3C50E0"/>
<path d="M170.151 7.39999H174.687V27H170.151V7.39999ZM161.247 27H156.711V7.39999H161.247V27ZM170.487 18.964H160.911V15.128H170.487V18.964Z" fill="#1C2434"/>
<path d="M143.032 27.336C140.251 27.336 138.076 26.5613 136.508 25.012C134.94 23.4627 134.156 21.2507 134.156 18.376V7.39999H138.692V18.208C138.692 20.0747 139.075 21.4187 139.84 22.24C140.605 23.0613 141.679 23.472 143.06 23.472C144.441 23.472 145.515 23.0613 146.28 22.24C147.045 21.4187 147.428 20.0747 147.428 18.208V7.39999H151.908V18.376C151.908 21.2507 151.124 23.4627 149.556 25.012C147.988 26.5613 145.813 27.336 143.032 27.336Z" fill="#1C2434"/>
<path d="M111.324 27V7.39999H115.076L126.64 21.512H124.82V7.39999H129.3V27H125.576L113.984 12.888H115.804V27H111.324Z" fill="#1C2434"/>
<path d="M96.496 15.296H105.932V18.824H96.496V15.296ZM96.832 23.36H107.5V27H92.324V7.39999H107.136V11.04H96.832V23.36Z" fill="#1C2434"/>
<path d="M72.324 27V7.39999H80.808C82.5626 7.39999 84.0746 7.68933 85.344 8.26799C86.6133 8.82799 87.5933 9.63999 88.284 10.704C88.9746 11.768 89.32 13.0373 89.32 14.512C89.32 15.968 88.9746 17.228 88.284 18.292C87.5933 19.356 86.6133 20.1773 85.344 20.756C84.0746 21.316 82.5626 21.596 80.808 21.596H74.844L76.86 19.552V27H72.324ZM76.86 20.056L74.844 17.9H80.556C81.956 17.9 83.0013 17.6013 83.692 17.004C84.3826 16.4067 84.728 15.576 84.728 14.512C84.728 13.4293 84.3826 12.5893 83.692 11.992C83.0013 11.3947 81.956 11.096 80.556 11.096H74.844L76.86 8.93999V20.056Z" fill="#1C2434"/>
<path d="M63.324 27V7.39999H67.86V27H63.324Z" fill="#1C2434"/>
<path d="M51.7639 27.336C50.1959 27.336 48.6933 27.1307 47.2559 26.72C45.8186 26.2907 44.6613 25.74 43.7839 25.068L45.3239 21.652C46.1639 22.2493 47.1533 22.744 48.2919 23.136C49.4493 23.5093 50.6159 23.696 51.7919 23.696C52.6879 23.696 53.4066 23.612 53.9479 23.444C54.5079 23.2573 54.9186 23.0053 55.1799 22.688C55.4413 22.3707 55.5719 22.0067 55.5719 21.596C55.5719 21.0733 55.3666 20.6627 54.9559 20.364C54.5453 20.0467 54.0039 19.7947 53.3319 19.608C52.6599 19.4027 51.9133 19.216 51.0919 19.048C50.2893 18.8613 49.4773 18.6373 48.6559 18.376C47.8533 18.1147 47.1159 17.7787 46.4439 17.368C45.7719 16.9573 45.2213 16.416 44.7919 15.744C44.3813 15.072 44.1759 14.2133 44.1759 13.168C44.1759 12.048 44.4746 11.0307 45.0719 10.116C45.6879 9.18266 46.6026 8.44533 47.8159 7.90399C49.0479 7.344 50.5879 7.064 52.4359 7.064C53.6679 7.064 54.8813 7.21333 56.0759 7.51199C57.2706 7.79199 58.3253 8.22133 59.2399 8.79999L57.8399 12.244C56.9253 11.7213 56.0106 11.3387 55.0959 11.096C54.1813 10.8347 53.2853 10.704 52.4079 10.704C51.5306 10.704 50.8119 10.8067 50.2519 11.012C49.6919 11.2173 49.2906 11.488 49.0479 11.824C48.8053 12.1413 48.6839 12.5147 48.6839 12.944C48.6839 13.448 48.8893 13.8587 49.2999 14.176C49.7106 14.4747 50.2519 14.7173 50.9239 14.904C51.5959 15.0907 52.3333 15.2773 53.1359 15.464C53.9573 15.6507 54.7693 15.8653 55.5719 16.108C56.3933 16.3507 57.1399 16.6773 57.8119 17.088C58.4839 17.4987 59.0253 18.04 59.4359 18.712C59.8653 19.384 60.0799 20.2333 60.0799 21.26C60.0799 22.3613 59.7719 23.3693 59.1559 24.284C58.5399 25.1987 57.6159 25.936 56.3839 26.496C55.1706 27.056 53.6306 27.336 51.7639 27.336Z" fill="#1C2434"/>
<path d="M16.7639 27.336C15.1959 27.336 13.6933 27.1307 12.2559 26.72C10.8186 26.2907 9.66127 25.74 8.78394 25.068L10.3239 21.652C11.1639 22.2493 12.1533 22.744 13.2919 23.136C14.4493 23.5093 15.6159 23.696 16.7919 23.696C17.6879 23.696 18.4066 23.612 18.9479 23.444C19.5079 23.2573 19.9186 23.0053 20.1799 22.688C20.4413 22.3707 20.5719 22.0067 20.5719 21.596C20.5719 21.0733 20.3666 20.6627 19.9559 20.364C19.5453 20.0467 19.0039 19.7947 18.3319 19.608C17.6599 19.4027 16.9133 19.216 16.0919 19.048C15.2893 18.8613 14.4773 18.6373 13.6559 18.376C12.8533 18.1147 12.1159 17.7787 11.4439 17.368C10.7719 16.9573 10.2213 16.416 9.79194 15.744C9.38127 15.072 9.17594 14.2133 9.17594 13.168C9.17594 12.048 9.4746 11.0307 10.0719 10.116C10.6879 9.18266 11.6026 8.44533 12.8159 7.90399C14.0479 7.344 15.5879 7.064 17.4359 7.064C18.6679 7.064 19.8813 7.21333 21.0759 7.51199C22.2706 7.79199 23.3253 8.22133 24.2399 8.79999L22.8399 12.244C21.9253 11.7213 21.0106 11.3387 20.0959 11.096C19.1813 10.8347 18.2853 10.704 17.4079 10.704C16.5306 10.704 15.8119 10.8067 15.2519 11.012C14.6919 11.2173 14.2906 11.488 14.0479 11.824C13.8053 12.1413 13.6839 12.5147 13.6839 12.944C13.6839 13.448 13.8893 13.8587 14.2999 14.176C14.7106 14.4747 15.2519 14.7173 15.9239 14.904C16.5959 15.0907 17.3333 15.2773 18.1359 15.464C18.9573 15.6507 19.7693 15.8653 20.5719 16.108C21.3933 16.3507 22.1399 16.6773 22.8119 17.088C23.4839 17.4987 24.0253 18.04 24.4359 18.712C24.8653 19.384 25.0799 20.2333 25.0799 21.26C25.0799 22.3613 24.7719 23.3693 24.1559 24.284C23.5399 25.1987 22.6159 25.936 21.3839 26.496C20.1706 27.056 18.6306 27.336 16.7639 27.336Z" fill="white"/>
</svg>
