<svg width="32" height="32" viewBox="0 0 32 32" fill="none" xmlns="http://www.w3.org/2000/svg">
<g clip-path="url(#clip0_16_36)">
<path d="M0 8.42105C0 3.77023 3.77023 0 8.42105 0H23.5789C28.2298 0 32 3.77023 32 8.42105V23.5789C32 28.2298 28.2298 32 23.5789 32H8.42105C3.77023 32 0 28.2298 0 23.5789V8.42105Z" fill="#3C50E0"/>
<path d="M16.7639 27.336C15.1959 27.336 13.6933 27.1307 12.2559 26.72C10.8186 26.2907 9.66127 25.74 8.78394 25.068L10.3239 21.652C11.1639 22.2493 12.1533 22.744 13.2919 23.136C14.4493 23.5093 15.6159 23.696 16.7919 23.696C17.6879 23.696 18.4066 23.612 18.9479 23.444C19.5079 23.2573 19.9186 23.0053 20.1799 22.688C20.4413 22.3707 20.5719 22.0067 20.5719 21.596C20.5719 21.0733 20.3666 20.6627 19.9559 20.364C19.5453 20.0467 19.0039 19.7947 18.3319 19.608C17.6599 19.4027 16.9133 19.216 16.0919 19.048C15.2893 18.8613 14.4773 18.6373 13.6559 18.376C12.8533 18.1147 12.1159 17.7787 11.4439 17.368C10.7719 16.9573 10.2213 16.416 9.79194 15.744C9.38127 15.072 9.17594 14.2133 9.17594 13.168C9.17594 12.048 9.4746 11.0307 10.0719 10.116C10.6879 9.18266 11.6026 8.44533 12.8159 7.90399C14.0479 7.344 15.5879 7.064 17.4359 7.064C18.6679 7.064 19.8813 7.21333 21.0759 7.51199C22.2706 7.79199 23.3253 8.22133 24.2399 8.79999L22.8399 12.244C21.9253 11.7213 21.0106 11.3387 20.0959 11.096C19.1813 10.8347 18.2853 10.704 17.4079 10.704C16.5306 10.704 15.8119 10.8067 15.2519 11.012C14.6919 11.2173 14.2906 11.488 14.0479 11.824C13.8053 12.1413 13.6839 12.5147 13.6839 12.944C13.6839 13.448 13.8893 13.8587 14.2999 14.176C14.7106 14.4747 15.2519 14.7173 15.9239 14.904C16.5959 15.0907 17.3333 15.2773 18.1359 15.464C18.9573 15.6507 19.7693 15.8653 20.5719 16.108C21.3933 16.3507 22.1399 16.6773 22.8119 17.088C23.4839 17.4987 24.0253 18.04 24.4359 18.712C24.8653 19.384 25.0799 20.2333 25.0799 21.26C25.0799 22.3613 24.7719 23.3693 24.1559 24.284C23.5399 25.1987 22.6159 25.936 21.3839 26.496C20.1706 27.056 18.6306 27.336 16.7639 27.336Z" fill="white"/>
</g>
<defs>
<clipPath id="clip0_16_36">
<rect width="32" height="32" fill="white"/>
</clipPath>
</defs>
</svg>
